<svg width="123" height="32" viewBox="0 0 123 32" fill="none" xmlns="http://www.w3.org/2000/svg">
    <path fill-rule="evenodd" clip-rule="evenodd" d="M51.729 30.9189H67.0598V27.9963H51.729V30.9189Z" fill="#002F87"/>
    <path fill-rule="evenodd" clip-rule="evenodd" d="M67.0598 30.9189H82.3906V27.9963H67.0598V30.9189Z" fill="#FEFEFE"/>
    <path fill-rule="evenodd" clip-rule="evenodd" d="M82.3904 30.9189H98.1493V27.9963H82.3904V30.9189Z" fill="#D7282F"/>
    <path fill-rule="evenodd" clip-rule="evenodd" d="M74.3115 8.62465L74.0677 8.62694H72.3454L70.6532 5.46226H68.6087V8.62694H66.8561V0.686107H71.5436C72.9729 0.686107 74.1259 1.75667 74.1259 3.07543C74.1259 4.10147 73.4288 4.97255 72.449 5.31075L74.3115 8.62465ZM71.2125 4.18898C71.8492 4.18898 72.3592 3.7178 72.3592 3.1337C72.3592 2.54597 71.8515 2.07499 71.2189 2.07499H68.6087V4.18898H71.2125ZM59.614 4.49985C59.1532 4.22471 58.6304 4.05676 57.5229 3.81544C55.6388 3.41897 55.5291 3.27891 55.5291 2.78691C55.5291 2.21676 56.0127 1.84246 56.9775 1.84246C57.8993 1.84246 58.3955 2.15027 58.5848 2.85684H60.301C60.1419 1.34338 58.9536 0.508412 57.0634 0.508412C55.1324 0.508412 53.8369 1.42841 53.8369 2.89888C53.8369 3.59628 54.1438 4.16165 54.7372 4.51972C55.1097 4.7704 55.9496 5.02682 57.0797 5.2882L57.2527 5.32775L57.5784 5.3931C57.8526 5.45959 58.1278 5.54691 58.2958 5.61569C58.7603 5.82797 58.912 6.04025 58.912 6.39009C58.912 7.02788 58.3463 7.46046 57.2767 7.46046C56.082 7.46046 55.4432 7.0361 55.2878 6.16158H53.5504C53.6791 7.83935 55.0327 8.8096 57.1656 8.8096C59.2768 8.8096 60.6368 7.864 60.6368 6.26533C60.6368 5.52379 60.2884 4.92784 59.614 4.49985ZM80.1968 0.505928C82.7741 0.505928 84.7882 2.32968 84.7882 4.65137C84.7882 6.987 82.7628 8.80941 80.1968 8.80941C77.5967 8.80941 75.5954 7.00897 75.5954 4.67353C75.5954 2.34134 77.6246 0.505928 80.1968 0.505928ZM80.1968 7.3355C81.7387 7.3355 83.0013 6.13578 83.0013 4.65136C83.0013 3.18319 81.7513 1.98098 80.1968 1.98098C78.6449 1.98098 77.3834 3.18319 77.3834 4.65136C77.3834 6.13578 78.6449 7.3355 80.1968 7.3355ZM122.731 8.62465L122.487 8.62694H120.762L119.071 5.46226H117.026V8.62694H115.27V0.686107H119.962C121.39 0.686107 122.541 1.75667 122.541 3.07543C122.541 4.10147 121.843 4.97255 120.864 5.31075L122.731 8.62465ZM119.628 4.18898C120.265 4.18898 120.777 3.7178 120.777 3.1337C120.777 2.54597 120.27 2.07499 119.635 2.07499H117.026V4.18898H119.628ZM39.7271 6.55919L37.5969 0.685724H35.7028L38.7739 8.62656H40.639L43.7492 0.685724H41.8789L39.7271 6.55919ZM90.7689 1.98079C91.7878 1.98079 92.6819 2.4984 93.2122 3.34388H95.138L95.0585 3.16083C94.4094 1.5912 92.7539 0.505737 90.7689 0.505737C88.1889 0.505737 86.1711 2.34115 86.1711 4.67315C86.1711 7.00992 88.1889 8.81037 90.7689 8.81037C92.7539 8.81037 94.4094 7.72357 95.0585 6.15183L95.138 5.9663H93.2122C92.6819 6.81408 91.7878 7.33531 90.7689 7.33531C89.2169 7.33531 87.9543 6.12145 87.9543 4.65117C87.9543 3.18415 89.2169 1.98079 90.7689 1.98079ZM106.631 8.62656H112.916V7.20042H108.386V5.46188H111.618V4.10242H108.386V2.11187H112.916V0.685724H106.631V8.62656ZM102.144 4.04128H98.6415V0.685342H96.8912V8.62618H98.6415V5.46284H102.144V8.62618H103.896V0.685342H102.144V4.04128ZM45.4709 8.62656H51.7506V7.20042H47.2198V5.46188H50.4551V4.10242H47.2198V2.11187H51.7506V0.685724H45.4709V8.62656ZM33.2532 0.685342H35.2331L32.0081 5.57576V8.62618H30.2554V5.56525L27.014 0.685342H29.0443L31.1608 4.1158L33.2532 0.685342Z" fill="white"/>
    <path fill-rule="evenodd" clip-rule="evenodd" d="M88.6499 15.8482C88.8438 15.8691 89.0205 15.7825 89.1194 15.5627C89.2589 15.2523 89.3973 14.9413 89.5256 14.6261C89.561 14.5391 89.5585 14.4364 89.5734 14.341C89.4652 14.3582 89.34 14.346 89.2518 14.3983C88.8558 14.6326 88.5287 14.9436 88.3288 15.3723C88.1612 15.7324 88.2183 15.8234 88.6499 15.8482ZM107.369 17.8332C107.559 17.7587 107.757 17.6951 107.942 17.6041C108.074 17.5393 108.187 17.4342 108.312 17.3527C108.738 17.075 109.037 16.6873 109.25 16.2274C109.308 16.1026 109.243 16.0213 109.105 16.0325C109.061 16.0358 109.018 16.0493 108.976 16.064C108.652 16.1775 108.366 16.3586 108.13 16.6092C107.832 16.9257 107.546 17.2539 107.262 17.5829C107.23 17.6195 107.222 17.6963 107.234 17.7473C107.242 17.7787 107.307 17.7962 107.369 17.8332ZM98.8331 16.8935C98.8819 16.8162 98.909 16.7465 98.9576 16.7002C99.3779 16.3016 99.7938 15.8977 100.229 15.5166C100.379 15.3854 100.571 15.2932 100.757 15.2195C101.1 15.0839 101.359 15.2715 101.381 15.6473C101.407 16.0803 101.305 16.4888 101.143 16.8825C101.042 17.1282 100.91 17.3609 100.807 17.6064C100.593 18.1194 100.385 18.6348 100.184 19.1533C100.098 19.3762 100.245 19.5519 100.473 19.4885C100.666 19.4348 100.864 19.3609 101.028 19.2486C101.394 18.9995 101.742 18.7229 102.093 18.4517C102.14 18.4159 102.188 18.3474 102.19 18.2925C102.203 17.8884 102.418 17.5702 102.603 17.2379C102.983 16.5551 103.534 16.0234 104.099 15.5075C104.359 15.2702 104.66 15.118 105.028 15.1306C105.607 15.1506 106.138 15.7396 105.757 16.406C105.628 16.6321 105.501 16.8638 105.339 17.0644C105.224 17.2076 105.057 17.3121 104.902 17.4167C104.805 17.4824 104.693 17.4759 104.604 17.379C104.515 17.2803 104.508 17.1718 104.578 17.0604C104.694 16.8781 104.811 16.6976 104.928 16.5163C104.99 16.4193 105.06 16.3264 105.112 16.2239C105.134 16.1788 105.119 16.1139 105.121 16.0581C105.07 16.0607 105.007 16.0445 104.972 16.0691C104.789 16.1961 104.589 16.3104 104.44 16.4717C103.889 17.0663 103.424 17.726 103.137 18.4944C103.057 18.7083 103.043 18.9566 103.042 19.1893C103.04 19.4257 103.16 19.5161 103.397 19.5338C103.661 19.5535 103.907 19.4876 104.147 19.3817C104.677 19.1474 105.166 18.8444 105.615 18.4729C105.785 18.3323 105.9 18.1581 105.983 17.9528C106.333 17.0882 106.883 16.3866 107.623 15.828C107.899 15.6197 108.177 15.4448 108.514 15.3698C108.71 15.326 108.91 15.3216 109.077 15.4277C109.298 15.5673 109.538 15.7097 109.692 15.912C109.915 16.2045 109.828 16.5551 109.676 16.8598C109.34 17.5315 108.835 18.0488 108.168 18.3727C107.752 18.5742 107.385 18.6725 106.813 18.288C106.748 18.4853 106.677 18.67 106.628 18.8606C106.596 18.9861 106.597 19.1202 106.583 19.2503C106.551 19.5506 106.694 19.7323 106.995 19.7765C107.26 19.8153 107.507 19.7489 107.748 19.6491C108.407 19.3754 108.986 18.9667 109.526 18.5064C110.167 17.9593 110.78 17.3784 111.403 16.8099C111.539 16.6861 111.639 16.6684 111.74 16.7673C111.831 16.8566 111.83 16.9947 111.725 17.1051C110.941 17.9261 110.167 18.7568 109.366 19.5599C108.942 19.985 108.456 20.3404 107.887 20.5529C107.429 20.7239 106.984 20.7047 106.56 20.4434C106.502 20.4076 106.446 20.3625 106.402 20.3103C106.12 19.9757 105.905 19.6068 105.849 19.1592C105.845 19.1307 105.834 19.1031 105.82 19.0476C105.735 19.1297 105.67 19.2019 105.595 19.2632C105.239 19.558 104.897 19.8772 104.515 20.1332C104.24 20.3177 103.924 20.4642 103.566 20.4287C103.295 20.4017 103.054 20.3265 102.832 20.144C102.563 19.9235 102.267 19.7405 102.261 19.2918C102.19 19.3596 102.158 19.3872 102.129 19.4177C101.777 19.79 101.387 20.1101 100.925 20.3345C100.601 20.4918 100.153 20.4101 99.9142 20.1385C99.6603 19.8494 99.4764 19.5224 99.4615 19.1267C99.4482 18.7772 99.5709 18.4557 99.7029 18.1383C99.938 17.5734 100.17 17.007 100.399 16.4393C100.437 16.3449 100.45 16.2403 100.475 16.1405C100.463 16.1333 100.452 16.1259 100.44 16.1186C100.397 16.1537 100.347 16.183 100.311 16.2247C99.8405 16.7701 99.3659 17.3119 98.9053 17.8659C98.4604 18.4009 98.0319 18.9499 97.5947 19.4914C97.407 19.7237 97.2603 19.9761 97.1721 20.2657C97.0873 20.5453 96.9745 20.5904 96.7178 20.4653C96.6865 20.4499 96.6553 20.4343 96.6251 20.4171C96.366 20.2688 96.2983 20.0467 96.4428 19.7818C96.5651 19.5571 96.6993 19.3392 96.8268 19.1175C96.8556 19.0673 96.8777 19.0137 96.9032 18.9614C96.8897 18.9496 96.8763 18.9378 96.8628 18.9261C96.7198 19.0707 96.5555 19.1996 96.4386 19.3634C96.1827 19.7214 95.8497 19.9875 95.5067 20.2459C95.4508 20.2878 95.3937 20.328 95.3395 20.372C95.0701 20.5918 94.731 20.5881 94.4678 20.3493C94.3277 20.2223 94.1901 20.0888 94.0742 19.9397C94.0115 19.8593 93.9645 19.7393 93.9674 19.6386C93.9738 19.4236 94.0171 19.2099 94.0459 18.9955C94.0504 18.9619 94.0579 18.9286 94.0651 18.8884C93.9287 19.0158 93.7947 19.1307 93.6732 19.2579C93.511 19.4278 93.3674 19.6169 93.1992 19.7797C93.0276 19.9456 92.8412 20.0974 92.651 20.241C92.4735 20.3752 92.1586 20.3592 92.0028 20.1987C91.8695 20.0614 91.7661 19.8944 91.639 19.7273C91.6425 19.7256 91.6131 19.7323 91.5943 19.7504C91.3831 19.9555 91.1697 20.1589 90.9638 20.3699C90.6675 20.6738 90.34 20.7047 89.9648 20.5028C89.382 20.1892 89.2094 19.6245 89.2949 19.0042C89.3931 18.291 89.6834 17.6559 90.0673 17.059C90.0956 17.0147 90.1113 16.9408 90.095 16.8947C90.0836 16.8634 90.0066 16.8419 89.9584 16.8406C89.7211 16.8351 89.4825 16.8263 89.2462 16.8433C89.1529 16.8501 89.0406 16.8987 88.9768 16.9667C88.4014 17.5803 87.8138 18.1796 87.1558 18.7029C87.0277 18.8048 86.8584 18.7972 86.7324 18.6687C86.6201 18.5544 86.6792 18.4283 86.7566 18.3291C86.8797 18.1718 87.0223 18.0303 87.152 17.8783C87.402 17.5856 87.6524 17.2935 87.8953 16.995C88.0573 16.7955 88.0525 16.5846 87.9503 16.3454C87.8369 16.0803 87.7333 15.8015 87.6859 15.5183C87.593 14.9613 87.8907 14.56 88.2861 14.2327C88.7823 13.8221 89.3393 13.8036 89.9094 14.0487C90.2229 14.1833 90.3218 14.4311 90.228 14.8154C90.1782 15.0194 90.096 15.2157 90.0259 15.4144C89.9907 15.514 89.946 15.6103 89.9123 15.7103C89.8517 15.8899 89.8887 15.9293 90.0702 15.9046C90.2802 15.8762 90.4915 15.8436 90.7027 15.8383C90.9355 15.8326 91.1515 15.9017 91.263 16.1348C91.3768 16.3729 91.3363 16.6022 91.1921 16.8204C90.8993 17.2636 90.5993 17.7029 90.3261 18.1585C90.1697 18.419 90.0567 18.7071 89.9309 18.9856C89.838 19.192 89.9173 19.3845 90.0133 19.5618C90.0422 19.615 90.1345 19.6502 90.2026 19.6603C90.3781 19.6866 90.5481 19.6605 90.6977 19.5508C91.1552 19.2156 91.5653 18.8233 91.9107 18.3752C92.1153 18.1097 92.2403 17.7806 92.4017 17.4805C92.7046 16.9177 93.026 16.3675 93.4797 15.9122C93.7591 15.6322 94.0713 15.3984 94.462 15.3157C94.9304 15.2165 95.3689 15.2711 95.7301 15.6366C95.8421 15.7501 95.9921 15.8318 96.0817 15.9594C96.2232 16.1615 96.3389 16.3852 96.4446 16.6098C96.4953 16.7174 96.4738 16.8415 96.3505 16.9111C96.2363 16.9756 96.1454 16.9198 96.0742 16.8366C95.9807 16.7269 95.8984 16.6071 95.8125 16.4904C95.7144 16.3576 95.6277 16.2146 95.5185 16.0923C95.2865 15.8322 95.0513 15.8004 94.7775 16.0165C94.5127 16.2253 94.254 16.4483 94.0225 16.6941C93.3407 17.4174 92.8039 18.2428 92.4158 19.1653C92.3901 19.2263 92.4029 19.3038 92.3978 19.3737C92.4772 19.3779 92.5734 19.4133 92.6328 19.3802C92.7963 19.2893 92.9608 19.1874 93.0955 19.0583C93.5784 18.5957 94.0498 18.1209 94.5238 17.6486C94.6511 17.5218 94.7676 17.3837 94.8967 17.259C95.0024 17.1567 95.3041 17.1765 95.4376 17.2843C95.5735 17.394 95.612 17.5616 95.516 17.7309C95.35 18.0225 95.1665 18.3038 94.9987 18.5944C94.8276 18.8909 94.6875 19.2023 94.636 19.5464C94.624 19.6275 94.6325 19.7119 94.6316 19.7946C94.7119 19.7826 94.7988 19.7869 94.8712 19.7561C95.2685 19.5879 95.6271 19.3499 95.94 19.0532C96.3565 18.6582 96.754 18.2419 97.1599 17.8353C97.1916 17.8037 97.2237 17.7703 97.2609 17.7469C97.7583 17.4321 97.9617 16.9154 98.1393 16.3908C98.2239 16.1417 98.2554 15.8735 98.3013 15.612C98.3158 15.5294 98.2976 15.4412 98.2971 15.3557C98.2959 15.2043 98.3441 15.1668 98.4912 15.2018C98.7362 15.2603 98.8856 15.4612 98.9342 15.7825C98.9827 16.1024 98.9075 16.4033 98.8128 16.7027C98.8024 16.7357 98.7946 16.7696 98.788 16.804C98.7865 16.8113 98.796 16.821 98.8331 16.8935Z" fill="white"/>
    <path fill-rule="evenodd" clip-rule="evenodd" d="M47.3699 15.8983C47.3744 15.9069 47.3792 15.9156 47.3837 15.9242C47.4733 15.8772 47.5758 15.8456 47.6504 15.7808C47.9437 15.5275 48.1322 15.2022 48.241 14.8286C48.2749 14.7126 48.2569 14.6037 48.1543 14.5328C48.0419 14.4551 47.9165 14.421 47.7953 14.5136C47.4715 14.7606 47.1859 15.0411 47.0276 15.4327C46.9099 15.7233 46.9726 15.8393 47.2815 15.8873C47.3109 15.892 47.3405 15.8947 47.3699 15.8983ZM53.608 16.0017C53.4304 16.0863 53.2428 16.1541 53.0772 16.2588C52.5424 16.5967 52.1616 17.0987 51.7635 17.5803C51.7389 17.6102 51.73 17.6974 51.749 17.7127C51.7991 17.7532 51.8693 17.7902 51.9305 17.789C52.0172 17.7873 52.1118 17.766 52.1877 17.7243C52.3959 17.6108 52.5991 17.4874 52.7983 17.3586C53.2281 17.0808 53.5401 16.698 53.7458 16.2255C53.8006 16.0994 53.7526 16.0293 53.608 16.0017ZM48.6066 15.8419C48.8353 15.8419 49.0376 15.8343 49.2392 15.8438C49.5313 15.8579 49.7736 15.9928 49.9576 16.2171C50.1115 16.4049 50.114 16.637 50.0196 16.8469C49.9323 17.0415 49.8148 17.2276 49.6826 17.3944C49.2718 17.9115 48.9693 18.4838 48.7955 19.1235C48.7581 19.2614 48.7535 19.4128 48.7587 19.5573C48.7668 19.7805 48.9315 19.8723 49.1204 19.7544C49.3354 19.6205 49.5448 19.4743 49.7411 19.3143C49.9263 19.1633 50.0985 18.994 50.2621 18.8191C50.3368 18.739 50.402 18.6321 50.4293 18.5262C50.5947 17.8862 50.9185 17.3274 51.2767 16.7873C51.6555 16.2156 52.1219 15.7334 52.7356 15.4211C53.197 15.1864 53.6473 15.2544 54.0543 15.5477C54.406 15.8014 54.4925 16.2714 54.2867 16.7243C54.0313 17.2859 53.6289 17.7258 53.1393 18.0871C52.8134 18.3276 52.4695 18.504 52.0507 18.5194C51.8308 18.5274 51.6847 18.4255 51.5332 18.3021C51.3871 18.1829 51.3874 18.184 51.304 18.3493C51.1535 18.6479 51.0604 18.9557 51.1444 19.2949C51.2615 19.7674 51.7286 20.034 52.1956 19.7639C52.9467 19.3297 53.6928 18.8906 54.338 18.3002C54.9864 17.7068 55.6393 17.1154 56.1907 16.4243C56.3697 16.2005 56.5089 15.9387 56.6378 15.6795C56.8636 15.2257 57.0701 14.7621 57.2785 14.2995C57.3736 14.0878 57.3281 14.0236 57.1077 14.0546C56.6519 14.1186 56.1967 14.1881 55.7419 14.2605C55.4785 14.3024 55.2161 14.3515 54.9546 14.4035C54.812 14.4319 54.7121 14.3946 54.6603 14.2498C54.6334 14.1744 54.5981 14.102 54.5743 14.0255C54.5217 13.8562 54.5765 13.7509 54.7506 13.7196C55.1642 13.6452 55.5784 13.5696 55.9952 13.5159C56.4618 13.4553 56.931 13.4163 57.3997 13.3719C57.6372 13.3494 57.7912 13.2334 57.9075 13.0144C58.2176 12.4309 58.4424 11.8144 58.6441 11.1869C58.6793 11.0774 58.7327 10.9736 58.7842 10.8706C58.8754 10.687 59.0134 10.6198 59.2121 10.6546C59.635 10.7289 59.7532 10.9222 59.5856 11.3237C59.3499 11.8885 59.0952 12.445 58.8442 13.0028C58.7714 13.1647 58.7776 13.1786 58.9524 13.2144C59.3395 13.2936 59.7269 13.374 60.1107 13.4679C60.2121 13.4928 60.3114 13.5564 60.3938 13.6246C60.503 13.7149 60.4873 13.8131 60.3743 13.899C60.2642 13.9828 60.1428 13.9893 60.0209 13.9457C59.5347 13.7716 59.0374 13.7665 58.5394 13.8594C58.445 13.8771 58.3362 13.9729 58.2882 14.0628C57.9691 14.6602 57.6747 15.2712 57.3536 15.8675C56.6289 17.2133 56.0392 18.6211 55.4797 20.0426C55.398 20.2501 55.3744 20.4815 55.3258 20.7021C55.2209 21.1784 55.1714 21.6598 55.2616 22.1424C55.3094 22.398 55.3837 22.6501 55.469 22.8954C55.499 22.9817 55.5925 23.0481 55.6647 23.1148C55.7634 23.2058 55.7957 23.3254 55.7324 23.4216C55.6591 23.5324 55.559 23.5223 55.4553 23.4768C55.0117 23.2822 54.7636 22.9192 54.6301 22.4648C54.4836 21.9668 54.4975 21.4591 54.5592 20.9498C54.6719 20.0165 55.0231 19.164 55.4166 18.3257C55.4477 18.2596 55.4727 18.1907 55.5104 18.0991C55.4646 18.1134 55.4439 18.1139 55.4313 18.1246C55.1437 18.3638 54.8406 18.5872 54.5732 18.8483C54.0682 19.3417 53.4745 19.706 52.8989 20.0978C52.8413 20.1368 52.7842 20.1783 52.7344 20.2265C52.1914 20.7502 51.6034 20.6895 51.0257 20.2646C50.9172 20.1848 50.8438 20.0559 50.7538 19.9498C50.684 19.8675 50.6139 19.7853 50.5367 19.6948C50.426 19.7978 50.3387 19.8953 50.2361 19.9717C49.9932 20.1528 49.755 20.3452 49.4935 20.4939C49.0968 20.7194 48.6697 20.6449 48.3159 20.3558C48.1067 20.1846 48.0637 19.9494 48.0359 19.7116C47.9432 18.9161 48.0709 18.1543 48.4305 17.4407C48.5309 17.2415 48.6751 17.0652 48.8129 16.8578C48.7655 16.8505 48.7262 16.8393 48.6871 16.8391C48.4545 16.8374 48.222 16.8414 47.9894 16.8372C47.8663 16.8349 47.776 16.8797 47.691 16.9724C47.1218 17.5915 46.5319 18.1884 45.873 18.7106C45.7493 18.8087 45.5906 18.7921 45.4609 18.6687C45.3442 18.5577 45.3959 18.4375 45.4747 18.3455C45.6597 18.1294 45.849 17.9151 46.0549 17.7201C46.3943 17.3988 46.6241 16.9987 46.8627 16.6045C46.8849 16.5679 46.8631 16.4733 46.8294 16.4371C46.5997 16.192 46.4578 15.9097 46.4125 15.5711C46.3587 15.168 46.4458 14.8215 46.7547 14.5471C46.7994 14.5075 46.8449 14.466 46.8793 14.4178C47.2443 13.9051 47.7597 13.8187 48.3132 13.9413C49.0159 14.0971 49.0879 14.4075 48.887 15.0628C48.8311 15.2449 48.7479 15.4184 48.6805 15.597C48.6546 15.6656 48.6376 15.7374 48.6066 15.8419Z" fill="white"/>
    <path fill-rule="evenodd" clip-rule="evenodd" d="M46.4238 12.4767C46.4128 12.3767 46.4058 12.2761 46.3905 12.1767C46.2893 11.5208 45.8916 11.306 45.3656 11.3108C45.307 11.3115 45.2334 11.3807 45.1949 11.438C45.1285 11.5368 45.0912 11.6553 45.0294 11.7577C44.5431 12.5645 44.0531 13.3691 43.5663 14.1756C43.3022 14.6129 43.0403 15.0515 42.7818 15.4925C42.7574 15.5339 42.7657 15.5952 42.7587 15.6474C42.8087 15.6538 42.8632 15.6759 42.9083 15.6636C43.0802 15.6169 43.2528 15.5687 43.4185 15.5036C44.4506 15.0995 45.2708 14.3988 46.0079 13.5805C46.2916 13.2655 46.4091 12.8941 46.4238 12.4767ZM44.0395 11.482C43.8541 11.5502 43.7128 11.6023 43.5715 11.6543C42.7535 11.9556 42.0454 12.4557 41.3186 12.9261C40.5163 13.4453 39.8108 14.0766 39.1853 14.7957C38.9361 15.0816 38.752 15.4331 38.5749 15.7744C38.4594 15.9966 38.1581 16.0467 38.0309 15.8873C37.97 15.8108 37.9336 15.6908 37.9347 15.591C37.9373 15.2722 38.1083 15.0082 38.2392 14.7323C38.5136 14.1549 38.9223 13.6805 39.3766 13.2495C39.818 12.8311 40.2616 12.4081 40.7466 12.0457C41.1342 11.7562 41.582 11.5479 42.0092 11.3153C42.6488 10.9666 43.3279 10.7132 44.0285 10.5303C44.9963 10.2778 46.1358 10.6183 46.7861 11.4963C47.142 11.9766 47.2059 12.4917 47.1254 13.0516C47.1093 13.163 47.059 13.2741 47.0046 13.374C46.7969 13.7551 46.5463 14.1036 46.2295 14.4009C45.9713 14.643 45.7254 14.8991 45.4608 15.1337C45.2977 15.2781 45.1138 15.3998 44.9323 15.5207C44.6878 15.6832 44.4339 15.8311 44.1887 15.993C44.0494 16.085 44.0687 16.1189 44.1988 16.2134C44.4753 16.4143 44.7488 16.623 45.0031 16.8519C45.2026 17.0313 45.2319 17.2793 45.1587 17.5358C45.0652 17.8634 45.0145 18.2144 44.8628 18.5118C44.5243 19.1755 44.1088 19.7901 43.5073 20.2496C42.9368 20.6848 42.3767 21.1346 41.8017 21.5635C41.5342 21.7631 41.2343 21.8907 40.8838 21.837C40.5935 21.7926 40.3949 21.6309 40.2608 21.3771C40.2035 21.2687 40.2461 21.186 40.3622 21.1965C40.5441 21.2131 40.6866 21.1401 40.8298 21.0436C41.7783 20.4041 42.703 19.7333 43.4378 18.8358C43.6584 18.5663 43.8452 18.265 44.0215 17.9626C44.1014 17.8253 44.1417 17.6524 44.1581 17.4912C44.2019 17.0597 44.014 16.8437 43.5872 16.7938C43.4247 16.7748 43.2607 16.7594 43.1022 16.7213C42.864 16.6641 42.6695 16.5303 42.5191 16.3299C42.4332 16.2153 42.3962 16.2206 42.3279 16.3453C41.7984 17.3136 41.2614 18.2778 40.7433 19.2525C40.4776 19.7524 40.2449 20.2704 39.9991 20.7812C39.9124 20.9615 39.8027 21.0044 39.626 20.9194C39.2413 20.7343 39.2343 20.6873 39.434 20.2938C39.7491 19.672 40.0462 19.0407 40.3603 18.4183C40.788 17.5712 41.2319 16.7325 41.6546 15.8831C41.9627 15.2638 42.2191 14.6161 42.552 14.0115C42.9337 13.3179 43.3749 12.6582 43.7895 11.9834C43.8576 11.8722 43.9234 11.7595 43.9865 11.6454C44.0058 11.6105 44.0122 11.5681 44.0395 11.482Z" fill="white"/>
    <path fill-rule="evenodd" clip-rule="evenodd" d="M62.5199 21.771C62.5145 21.763 62.5089 21.755 62.5035 21.7472C62.2275 21.8359 61.9283 21.8818 61.6798 22.0214C61.0769 22.3606 60.5107 22.7622 60.0385 23.2816C59.6806 23.6758 59.3547 24.0927 59.225 24.6307C59.1372 24.9946 59.4192 25.2849 59.7749 25.1933C59.8604 25.1714 59.9465 25.1403 60.0234 25.0973C60.5316 24.8137 60.9333 24.402 61.2871 23.9468C61.5567 23.6 61.7878 23.2222 62.034 22.8567C62.2323 22.5619 62.4293 22.2661 62.6217 21.9673C62.6476 21.9268 62.6616 21.8595 62.6463 21.8178C62.6362 21.79 62.5642 21.7858 62.5199 21.771ZM64.3513 18.7683C64.0972 19.0417 63.8367 19.3091 63.5913 19.59C63.3995 19.8092 63.1996 20.0162 62.9004 20.0456C62.7823 20.0572 62.6461 20.0101 62.5358 19.9536C62.314 19.8403 62.1474 19.6626 62.0531 19.4226C62.0367 19.3811 62.0136 19.3423 61.984 19.2836C61.9447 19.3146 61.9033 19.3339 61.8813 19.3668C61.6246 19.7504 61.2618 20.0151 60.902 20.2844C60.7354 20.4091 60.5877 20.5554 60.3632 20.5811C60.0145 20.6207 59.7234 20.4592 59.538 20.116C59.3717 19.8079 59.3704 19.4916 59.4596 19.1646C59.4687 19.1307 59.4772 19.0964 59.4826 19.0617C59.4846 19.0482 59.477 19.0332 59.4699 19.0008C59.4341 19.0316 59.4044 19.0532 59.3795 19.0796C59.0911 19.3851 58.807 19.6948 58.5146 19.9964C58.36 20.1556 58.185 20.2958 57.9557 20.3162C57.5657 20.351 57.3143 20.1821 57.1599 19.8039C57.0645 19.5708 57.1107 19.3432 57.1606 19.1082C57.3784 18.0819 57.8798 17.2047 58.5266 16.4054C58.8993 15.9447 59.3715 15.6185 59.9214 15.4109C60.1793 15.3136 60.4327 15.338 60.691 15.4269C61.0818 15.5612 61.4251 15.7646 61.6597 16.115C61.7611 16.2664 61.8222 16.4469 61.89 16.6189C61.9064 16.6602 61.8933 16.7454 61.8642 16.7654C61.8242 16.7924 61.7357 16.8012 61.7038 16.7743C61.62 16.7037 61.5335 16.6199 61.4878 16.5222C61.3593 16.2487 61.1911 16.007 60.9099 15.9015C60.6607 15.8076 60.4046 15.8745 60.1939 16.0381C59.4443 16.6208 58.8478 17.3447 58.3685 18.1659C58.1618 18.5199 58 18.9008 57.8233 19.2722C57.8034 19.3141 57.8003 19.3969 57.8254 19.4194C57.8558 19.4468 57.9365 19.4516 57.9742 19.4293C58.1569 19.3209 58.3555 19.2249 58.5063 19.0791C59.0847 18.5209 59.6487 17.9476 60.214 17.3755C60.4079 17.1794 60.5664 17.1375 60.8124 17.2445C60.9912 17.3226 61.0684 17.5161 60.9848 17.6932C60.9465 17.7745 60.8921 17.8478 60.8486 17.9265C60.6312 18.3215 60.4019 18.7104 60.2041 19.1156C60.1226 19.2823 60.1048 19.483 60.0669 19.67C60.0412 19.7963 60.0878 19.8452 60.1993 19.7915C60.471 19.6609 60.7594 19.5449 60.9943 19.3609C61.3736 19.0636 61.7162 18.7176 62.0711 18.3887C62.109 18.3535 62.1309 18.2967 62.1505 18.2464C62.5544 17.2177 63.1934 16.3521 63.9522 15.5726C64.2805 15.2355 64.6931 15.0929 65.1579 15.1369C65.277 15.1483 65.3993 15.1959 65.5065 15.2534C65.8036 15.413 66.0968 15.5812 66.3836 15.7594C66.4416 15.7954 66.4815 15.8851 66.4997 15.9579C66.5239 16.055 66.473 16.1232 66.3667 16.0885C66.2452 16.0487 66.1105 16.015 66.0145 15.9367C65.6785 15.6621 65.3341 15.7164 65.0041 15.9099C64.7968 16.0316 64.6184 16.2079 64.4376 16.3715C63.683 17.0537 63.1382 17.8869 62.7539 18.8317C62.7069 18.9471 62.6786 19.0711 62.6513 19.1935C62.6432 19.2301 62.6571 19.2943 62.6821 19.3099C62.7113 19.3276 62.7723 19.3192 62.805 19.2986C62.8932 19.2428 62.9782 19.18 63.0564 19.1105C63.7916 18.4573 64.5253 17.8025 65.2584 17.1468C65.3822 17.036 65.4976 16.9278 65.6861 16.9472C65.8887 16.9676 66.0474 17.1181 66.0236 17.3247C66.0075 17.4626 65.9774 17.609 65.9135 17.7294C65.3124 18.8574 64.7064 19.9825 64.0933 21.1037C63.8795 21.4948 63.6165 21.851 63.3333 22.1972C63.0595 22.5318 62.857 22.9258 62.6072 23.282C62.2708 23.7619 61.9523 24.2612 61.5641 24.6945C61.2341 25.063 60.8292 25.3679 60.4333 25.6682C60.0125 25.987 59.5618 25.9583 59.1093 25.7014C58.8062 25.5294 58.6717 25.2696 58.6415 24.9301C58.6005 24.4669 58.7921 24.0757 58.9963 23.6872C59.4395 22.8432 60.0174 22.1195 60.8695 21.6796C61.4737 21.368 62.1172 21.1661 62.8094 21.1922C62.8439 21.1934 62.8816 21.1905 62.9122 21.2031C63.021 21.2482 63.08 21.1928 63.127 21.1037C63.2466 20.8776 63.3618 20.6487 63.4883 20.4266C63.7657 19.9378 64.0494 19.4529 64.3294 18.9659C64.3579 18.9157 64.379 18.8612 64.4036 18.8086C64.3863 18.7953 64.3687 18.7818 64.3513 18.7683Z" fill="white"/>
    <path fill-rule="evenodd" clip-rule="evenodd" d="M72.8122 17.8179C72.9374 17.7861 73.0572 17.7777 73.1555 17.7263C73.3651 17.6171 73.5635 17.4857 73.7667 17.3633C74.1435 17.1368 74.4067 16.8013 74.6269 16.4261C74.6697 16.3532 74.7074 16.2749 74.7324 16.1943C74.7645 16.0902 74.7217 16.0189 74.6089 16.033C74.5172 16.0445 74.4256 16.0728 74.3397 16.1079C73.8956 16.2896 73.5638 16.6202 73.2509 16.9731C73.0754 17.1713 72.9043 17.3732 72.7388 17.58C72.7073 17.6194 72.6957 17.6922 72.7057 17.7432C72.7121 17.775 72.7766 17.7948 72.8122 17.8179ZM67.9013 17.1452C67.9429 17.1075 67.988 17.073 68.0259 17.0317C68.4535 16.5625 68.8713 16.0835 69.3122 15.6278C69.4534 15.4819 69.6419 15.3484 69.832 15.2947C70.2409 15.1787 70.532 15.4455 70.5444 15.9056C70.5535 16.2461 70.4466 16.564 70.3181 16.8691C70.1002 17.3863 69.8446 17.8874 69.6367 18.4084C69.538 18.6554 69.4805 18.9301 69.4616 19.1965C69.4383 19.5286 69.6588 19.6488 69.9328 19.4675C70.5078 19.0874 71.0541 18.6659 71.4871 18.1197C71.6264 17.9441 71.7011 17.7143 71.799 17.5063C72.0417 16.99 72.31 16.4901 72.7228 16.0913C73.0916 15.735 73.5164 15.4722 74.0202 15.3648C74.3037 15.3042 74.5851 15.3324 74.8512 15.4474C75.3337 15.6561 75.5052 16.0972 75.29 16.5931C74.959 17.3557 74.4353 17.9432 73.7136 18.3441C73.4669 18.4812 73.1959 18.5345 72.9242 18.5122C72.7764 18.5 72.6345 18.3997 72.4932 18.3321C72.4462 18.3098 72.4098 18.2654 72.3599 18.2239C72.2035 18.4467 72.1244 18.6861 72.0922 18.9434C72.0839 19.0083 72.0915 19.0765 72.0766 19.1392C71.9604 19.6296 72.4834 19.9185 72.8375 19.8533C72.962 19.8303 73.0864 19.7836 73.2 19.7259C74.2089 19.2129 75.1133 18.5511 75.9145 17.7419C76.2377 17.4155 76.575 17.1037 76.9046 16.7843C77.0006 16.6912 77.1024 16.6904 77.1966 16.774C77.2965 16.8628 77.2893 16.9748 77.2063 17.0694C76.886 17.4339 76.5711 17.8038 76.2354 18.1534C75.8342 18.5716 75.4204 18.9775 75.001 19.377C74.5042 19.8501 73.9873 20.3003 73.3366 20.5456C72.6183 20.8164 72.1416 20.6189 71.7505 19.988C71.7321 19.9583 71.7158 19.927 71.6961 19.8979C71.5803 19.7276 71.4638 19.5576 71.3448 19.3837C71.1799 19.5376 71.0085 19.7398 70.7985 19.8834C70.5105 20.0805 70.2086 20.2797 69.884 20.3911C69.5874 20.4928 69.2874 20.3704 69.0685 20.1184C68.4982 19.4625 68.5233 18.7341 68.843 17.9851C68.9648 17.7 69.1374 17.4379 69.2793 17.1612C69.3592 17.0056 69.4244 16.8422 69.4952 16.6817C69.5363 16.5882 69.509 16.5152 69.4258 16.4617C69.3334 16.4021 69.2686 16.4469 69.2088 16.5198C68.3648 17.5493 67.5148 18.5741 66.6799 19.6113C66.5001 19.8349 66.3687 20.1001 66.2238 20.3515C66.1433 20.4913 66.0082 20.5338 65.8743 20.4412C65.5402 20.21 65.5127 19.9727 65.7264 19.5852C66.1115 18.8876 66.4887 18.1847 66.8475 17.4726C67.025 17.1203 67.1657 16.747 67.3023 16.3751C67.4113 16.0776 67.4812 15.7698 67.4063 15.4434C67.3908 15.3766 67.4339 15.2621 67.4877 15.2221C67.5413 15.1821 67.6524 15.1816 67.7207 15.2092C68.0014 15.3236 68.0792 15.5794 68.1142 15.8538C68.1579 16.1957 68.0434 16.5107 67.9437 16.8276C67.9131 16.9251 67.8893 17.0247 67.8622 17.1233C67.8752 17.1306 67.8883 17.138 67.9013 17.1452Z" fill="white"/>
    <path fill-rule="evenodd" clip-rule="evenodd" d="M85.6063 16.0579C85.7755 16.017 85.8891 15.9863 86.0042 15.9627C86.3549 15.8911 86.6918 15.922 87.0146 16.0928C87.1534 16.1663 87.2018 16.2703 87.1913 16.4236C87.1846 16.5167 87.1435 16.5651 87.0605 16.5782C86.9728 16.5918 86.8803 16.6161 86.7954 16.6017C86.418 16.5375 86.0559 16.6114 85.6946 16.7062C85.6849 16.7085 85.6754 16.7138 85.6659 16.714C85.2804 16.7169 85.0942 16.9599 84.9243 17.2812C84.0977 18.8432 83.3503 20.4435 82.6401 22.0621C82.4765 22.4351 82.4823 22.462 82.1065 22.2889C81.7537 22.1266 81.6091 22.1106 81.8528 21.6404C82.4622 20.4642 83.0563 19.2797 83.6534 18.0972C83.7391 17.9273 83.8121 17.7504 83.8825 17.5731C83.9392 17.4299 83.8972 17.3783 83.7534 17.3377C83.6066 17.2962 83.4593 17.2446 83.3273 17.1699C83.2832 17.1448 83.2489 17.0102 83.2754 16.9671C83.337 16.8662 83.4244 16.7626 83.5262 16.7093C83.8158 16.5579 84.1196 16.435 84.4149 16.2939C84.6392 16.1867 84.8099 16.0336 84.9228 15.7913C85.1368 15.332 85.3793 14.8861 85.6201 14.4403C85.9922 13.7524 86.3725 13.0693 86.7495 12.3843C86.7956 12.3007 86.8484 12.2207 86.89 12.1352C86.9094 12.095 86.9096 12.0451 86.9185 11.9998C86.8759 11.9981 86.8285 11.9832 86.7915 11.9969C86.4861 12.111 86.1728 12.2095 85.8809 12.3525C85.2353 12.6692 84.5711 12.9552 84 13.4098C83.7 13.649 83.3997 13.8884 83.1038 14.1326C82.9162 14.2876 82.8028 14.2815 82.6544 14.0918C82.4169 13.7877 82.4136 13.6688 82.611 13.3289C82.8946 12.8404 83.3066 12.4862 83.7815 12.2159C84.8266 11.6204 85.9193 11.1258 87.105 10.9137C87.908 10.7701 88.7249 10.7019 89.5377 10.6208C90.2147 10.553 90.8938 10.5625 91.5669 10.6815C92.0389 10.7649 92.1063 11.1622 92.054 11.5682C92.0379 11.6937 91.857 11.7499 91.7533 11.657C91.5833 11.505 91.3807 11.4978 91.1804 11.4951C90.7401 11.489 90.2989 11.4854 89.8592 11.5075C89.3103 11.5351 88.763 11.5905 88.2147 11.6324C88.0363 11.6461 87.9225 11.736 87.8294 11.895C87.5987 12.2883 87.339 12.6639 87.1097 13.0581C86.7869 13.6128 86.4737 14.1737 86.171 14.7399C85.9984 15.0623 85.8513 15.3992 85.6994 15.7327C85.6597 15.8199 85.6452 15.9187 85.6063 16.0579Z" fill="white"/>
    <path fill-rule="evenodd" clip-rule="evenodd" d="M78.0681 21.2381C78.0468 21.304 78.0336 21.3741 78.0031 21.4354C77.8374 21.7672 77.6365 22.0673 77.2945 22.241C77.1715 22.3035 77.0913 22.2427 77.0035 22.1686C76.9172 22.0957 76.9261 22.018 76.965 21.9266C77.1492 21.4924 77.2611 21.0429 77.2522 20.5655C77.2491 20.4015 77.3768 20.2983 77.5291 20.3535C77.6359 20.392 77.7662 20.4552 77.8159 20.5466C77.9311 20.7582 78.004 20.9936 78.094 21.2193C78.0853 21.2256 78.0768 21.2318 78.0681 21.2381Z" fill="white"/>
    <path fill-rule="evenodd" clip-rule="evenodd" d="M0 12.2039C0 5.74574 5.14917 0.505737 11.4953 0.505737C17.8415 0.505737 22.9907 5.74574 22.9907 12.2039C22.9907 18.662 17.8486 23.902 11.4953 23.902C5.14917 23.902 0 18.662 0 12.2039ZM11.4953 3.82128C8.11685 3.82128 5.21291 5.8899 3.93802 8.83785C6.21867 9.12616 8.19476 10.4163 9.42008 12.2615C9.93712 8.54954 12.9544 6.30794 16.3187 5.40698C16.8711 8.85227 16.092 12.4345 13.2589 14.395C14.3426 15.6203 16.4816 16.4852 18.6985 16.2762C19.3572 15.0653 19.7326 13.6814 19.7326 12.2038C19.7326 9.36401 18.3514 6.85573 16.2337 5.34211C14.888 4.38349 13.2589 3.82128 11.4953 3.82128ZM14.9588 7.54046C15.1288 10.4452 13.4998 12.73 10.9925 13.9769C12.4444 16.3771 14.7605 17.7466 17.5794 17.8619C16.0708 19.5413 13.9035 20.5936 11.4953 20.5936C11.2616 20.5936 11.0349 20.5792 10.8154 20.5648V13.876C10.8154 11.1443 12.2815 8.55675 14.9588 7.54046ZM9.22884 20.2621C5.77954 19.2602 3.25807 16.0311 3.25807 12.1966C3.25807 11.5696 3.3289 10.9569 3.45639 10.3659L3.4918 10.3731C6.71446 10.683 9.22884 13.3355 9.22884 16.8312V20.2621ZM1.71403 12.2038C1.71403 6.70437 6.09118 2.25 11.4953 2.25C16.8995 2.25 21.2766 6.70437 21.2766 12.2038C21.2766 17.7033 16.8995 22.1577 11.4953 22.1577C6.09826 22.1577 1.71403 17.7033 1.71403 12.2038Z" fill="white"/>
</svg>
